<mxfile host="app.diagrams.net" modified="2024-03-01T13:54:54.542Z" agent="Mozilla/5.0 (Windows NT 10.0; Win64; x64) AppleWebKit/537.36 (KHTML, like Gecko) Chrome/120.0.0.0 YaBrowser/24.1.0.0 Safari/537.36" version="23.0.2" etag="iAhhHY5lcZqHDiFPIo69" type="github">
  <diagram name="Страница — 1" id="w6iIb4W-zN6hcxOnF9C6">
    <mxGraphModel>
      <root>
        <mxCell id="0" />
        <mxCell id="1" parent="0" />
      </root>
    </mxGraphModel>
  </diagram>
</mxfile>
